<svg xmlns="http://www.w3.org/2000/svg" width="4749.7" height="475.94" viewBox="0 0 4749.7 475.94"><defs><style>.cls-1{fill:#6cbdd9;}.cls-2{fill:#d9d96d;}.cls-3{fill:#6cd97e;}</style></defs><g id="Layer_1" data-name="Layer 1"><path d="M357.73,336.79V405H73.55v-367H350.92v68.16H158v79.7H328.37v66.06H158v84.94Z" transform="translate(-73.55 -0.06)"/><path d="M398.62,15.91h81.8V405h-81.8Z" transform="translate(-73.55 -0.06)"/><path d="M810.21,287H596.82q5.76,26.24,27.26,41.42t53.48,15.21q22,0,39.06-6.55a94.64,94.64,0,0,0,31.72-20.72l43.52,47.19Q752,409.15,675.46,409.15q-47.72,0-84.41-18.61t-56.63-51.65q-19.93-33-19.92-75,0-41.42,19.66-74.71a137.77,137.77,0,0,1,54-51.91q34.33-18.61,76.82-18.62,41.41,0,75,17.83a130.26,130.26,0,0,1,52.69,51.12q19.14,33.32,19.14,77.34Q811.79,266.53,810.21,287ZM618.84,196.27Q600,212,595.77,239.27H734.71q-4.2-26.75-23.07-42.73t-46.14-16Q637.71,180.54,618.84,196.27Z" transform="translate(-73.55 -0.06)"/><path d="M1290.75,149.87q31.2,31.2,31.2,93.59V405h-81.79V256.05q0-33.56-13.9-50.08t-39.58-16.51q-28.85,0-45.62,18.61t-16.78,55.32V405h-81.79V256.05q0-66.59-53.48-66.59-28.32,0-45.09,18.61t-16.78,55.32V405h-81.8V122.87h78.13v32.51A103.25,103.25,0,0,1,962,128.11q22.82-9.44,50.08-9.44,29.88,0,54,11.8a95.71,95.71,0,0,1,38.8,34.35,115.8,115.8,0,0,1,43.78-34.09q26.47-12,57.94-12.06Q1259.55,118.67,1290.75,149.87Z" transform="translate(-73.55 -0.06)"/><path d="M1652.27,287h-213.4q5.76,26.24,27.27,41.42t53.48,15.21q22,0,39.06-6.55a94.74,94.74,0,0,0,31.72-20.72l43.52,47.19q-39.86,45.62-116.4,45.62-47.71,0-84.42-18.61t-56.62-51.65q-19.93-33-19.93-75,0-41.42,19.67-74.71a137.64,137.64,0,0,1,54-51.91q34.33-18.61,76.81-18.62,41.42,0,75,17.83a130.28,130.28,0,0,1,52.7,51.12q19.13,33.32,19.13,77.34Q1653.84,266.53,1652.27,287Zm-191.38-90.71q-18.87,15.73-23.07,43h139q-4.2-26.75-23.07-42.73t-46.14-16Q1479.77,180.54,1460.89,196.27Z" transform="translate(-73.55 -0.06)"/><path d="M1943.53,150.13q32.25,31.47,32.25,93.33V405H1894V256.05q0-33.56-14.68-50.08t-42.47-16.51q-30.94,0-49.29,19.14t-18.35,56.89V405H1687.4V122.87h78.12v33q16.24-17.82,40.38-27.52t52.95-9.71Q1911.28,118.67,1943.53,150.13Z" transform="translate(-73.55 -0.06)"/><path d="M2210.67,391.32q-12.08,8.93-29.62,13.37a150,150,0,0,1-37,4.46q-50.34,0-77.86-25.69T2038.69,308V192.08h-43.52V129.16h43.52V60.47h81.8v68.69h70.26v62.92h-70.26V306.91q0,17.82,9.17,27.52t26,9.7q19.38,0,33-10.48Z" transform="translate(-73.55 -0.06)"/><path d="M2450.28,149.87q35.13,31.2,35.13,94.12V405h-76.55V369.83q-23.07,39.32-86,39.32-32.51,0-56.36-11t-36.44-30.41q-12.59-19.39-12.58-44,0-39.33,29.62-61.87t91.49-22.55h65q0-26.75-16.25-41.16t-48.77-14.42a142.29,142.29,0,0,0-44.3,7.08q-21.77,7.08-37,19.14L2228,152.76q23.07-16.24,55.32-25.17a247.81,247.81,0,0,1,66.32-8.92Q2415.15,118.67,2450.28,149.87ZM2380.55,344.4q16.24-9.7,23.07-28.58V287h-56.1q-50.34,0-50.34,33,0,15.74,12.32,24.91t33.82,9.18Q2364.29,354.1,2380.55,344.4Z" transform="translate(-73.55 -0.06)"/><path d="M2656.08,129.16q24.89-10.48,57.41-10.49v75.51q-13.65-1.05-18.35-1.05-35.14,0-55.06,19.66t-19.92,59V405h-81.8V122.87h78.13V160.1Q2631.16,139.64,2656.08,129.16Z" transform="translate(-73.55 -0.06)"/><path d="M3031.23,122.87,2916.82,387.26q-19.41,48.76-48,68.68t-69,19.93a143.23,143.23,0,0,1-43.51-6.82q-21.51-6.82-35.13-18.87l29.88-58.2a70.25,70.25,0,0,0,21.76,13.1,67.71,67.71,0,0,0,24.38,4.72q16.79,0,27.27-8.12t18.87-27L2829,378,2709.29,122.87h84.42l79.17,191.38,79.7-191.38Z" transform="translate(-73.55 -0.06)"/><path d="M4006.1,58.18q35.91,16.26,55.31,46.14t19.4,70.79q0,40.38-19.4,70.52t-55.31,46.14q-35.92,16-84.68,16h-73.93V409h-84.94v-367h158.87Q3970.18,41.93,4006.1,58.18ZM3974.9,222q19.92-16.51,19.92-46.92,0-30.93-19.92-47.45t-58.2-16.52h-69.21V238.55h69.21Q3955,238.55,3974.9,222Z" transform="translate(-73.55 -0.06)"/><path d="M4200.09,390.6q-45.89-24.63-71.83-67.9t-25.95-97.26q0-54,25.95-97.26t71.83-67.9q45.89-24.64,103-24.64t102.77,24.64q45.61,24.64,71.83,67.9t26.22,97.26q0,54-26.22,97.26t-71.83,67.9q-45.62,24.66-102.77,24.65T4200.09,390.6ZM4361.85,328A107.32,107.32,0,0,0,4403,286.26Q4418,259.53,4418,225.44T4403,164.62a107.3,107.3,0,0,0-41.16-41.68q-26.24-15-58.73-15t-58.72,15a107.16,107.16,0,0,0-41.16,41.68q-14.94,26.74-14.94,60.82t14.94,60.82A107.19,107.19,0,0,0,4244.4,328q26.2,14.94,58.72,14.94T4361.85,328Z" transform="translate(-73.55 -0.06)"/><path d="M4583.37,403.45q-40.64-11.81-65.28-30.67l28.84-64q23.59,17.29,56.1,27.79a210.72,210.72,0,0,0,65,10.48q36.18,0,53.48-10.74t17.3-28.58A27.35,27.35,0,0,0,4728.61,286q-10.23-8.65-26.22-13.89t-43.26-11.54q-41.94-9.94-68.68-19.92a111.6,111.6,0,0,1-45.88-32q-19.14-22-19.14-58.72A102.13,102.13,0,0,1,4542.74,92q17.3-25.95,52.17-41.16t85.2-15.2A282.26,282.26,0,0,1,4748.79,44q33.55,8.38,58.73,24.12l-26.22,64.49q-50.86-28.83-101.72-28.84-35.65,0-52.69,11.53t-17,30.42q0,18.87,19.66,28.05t60,18.09q41.94,10,68.68,19.92a113.74,113.74,0,0,1,45.88,31.46q19.14,21.51,19.14,58.2a100.21,100.21,0,0,1-17.57,57.41q-17.57,26-52.69,41.16t-85.47,15.21A300.46,300.46,0,0,1,4583.37,403.45Z" transform="translate(-73.55 -0.06)"/></g><g id="grafika"><rect class="cls-1" x="3286.38" y="1.56" width="140.01" height="473.91" rx="70" transform="translate(3044.32 3594.84) rotate(-90)"/><rect class="cls-2" x="3286.53" y="-166.89" width="140.01" height="473.91" rx="70" transform="translate(3212.92 3426.53) rotate(-90)"/><rect class="cls-3" x="3285.16" y="169.04" width="140.01" height="473.91" rx="70" transform="translate(2875.62 3761.1) rotate(-90)"/></g></svg>